%FSLAX34Y34*%
%MOMM*%
%LNSMDMASK_BOTTOM*%
G71*
G01*
%ADD10R, 0.760X1.500*%
%ADD11R, 1.300X1.400*%
%ADD12R, 0.900X0.400*%
%ADD13R, 0.900X0.900*%
%LPD*%
X140737Y-109588D02*
G54D10*
D03*
X128037Y-109588D02*
G54D10*
D03*
X115337Y-109588D02*
G54D10*
D03*
X102637Y-109588D02*
G54D10*
D03*
X140737Y-55588D02*
G54D10*
D03*
X128037Y-55588D02*
G54D10*
D03*
X115337Y-55588D02*
G54D10*
D03*
X102638Y-55588D02*
G54D10*
D03*
X89938Y-109588D02*
G54D10*
D03*
X77237Y-109588D02*
G54D10*
D03*
X64537Y-109588D02*
G54D10*
D03*
X89937Y-55588D02*
G54D10*
D03*
X77238Y-55588D02*
G54D10*
D03*
X64538Y-55588D02*
G54D10*
D03*
X51837Y-109588D02*
G54D10*
D03*
X51838Y-55588D02*
G54D10*
D03*
X185147Y-87085D02*
G54D11*
D03*
X166147Y-87085D02*
G54D11*
D03*
X185851Y-44503D02*
G54D12*
D03*
X168851Y-44502D02*
G54D12*
D03*
X185851Y-52502D02*
G54D12*
D03*
X168851Y-52502D02*
G54D12*
D03*
X185851Y-60502D02*
G54D12*
D03*
X168851Y-60502D02*
G54D12*
D03*
X185851Y-68502D02*
G54D12*
D03*
X168851Y-68502D02*
G54D12*
D03*
X185382Y-153006D02*
G54D12*
D03*
X168383Y-153005D02*
G54D12*
D03*
X185382Y-161005D02*
G54D12*
D03*
X168383Y-161005D02*
G54D12*
D03*
X185382Y-169005D02*
G54D12*
D03*
X168383Y-169005D02*
G54D12*
D03*
X185382Y-177005D02*
G54D12*
D03*
X168383Y-177005D02*
G54D12*
D03*
X36700Y-168050D02*
G54D13*
D03*
X36600Y-155850D02*
G54D13*
D03*
X206700Y-168050D02*
G54D13*
D03*
X206600Y-155850D02*
G54D13*
D03*
M02*
