%FSLAX34Y34*%
%MOMM*%
%LNSILK_BOTTOM*%
G71*
G01*
%ADD10C, 0.170*%
%ADD11C, 0.206*%
%ADD12C, 0.200*%
%ADD13C, 0.191*%
%ADD14C, 0.238*%
%ADD15C, 0.286*%
%ADD16C, 0.222*%
%LPD*%
G54D10*
X147037Y-98513D02*
X45438Y-98513D01*
X45438Y-65869D01*
X147037Y-65869D01*
X147037Y-98513D01*
G54D10*
G75*
G01X144025Y-93700D02*
G03X144025Y-93700I-1600J0D01*
G01*
G36*
G75*
G01X144025Y-93700D02*
G03X144025Y-93700I-1600J0D01*
G01*
G37*
X144025Y-93700D01*
G54D11*
X79587Y-76532D02*
X79587Y-85921D01*
X79010Y-87366D01*
X77854Y-88088D01*
X76698Y-88088D01*
X75543Y-87366D01*
X74965Y-85921D01*
X74965Y-76532D01*
G54D11*
X70921Y-80866D02*
X68032Y-76532D01*
X68032Y-88088D01*
G54D12*
X194647Y-97085D02*
X194647Y-77085D01*
X156647Y-77085D01*
X156647Y-97085D01*
X194647Y-97085D01*
G54D11*
X181274Y-111668D02*
X181852Y-113112D01*
X183008Y-113835D01*
X184163Y-113835D01*
X185319Y-113112D01*
X185897Y-111668D01*
X185897Y-104446D01*
X185319Y-103001D01*
X184163Y-102279D01*
X183008Y-102279D01*
X181852Y-103001D01*
X181274Y-104446D01*
G54D11*
X177231Y-106612D02*
X174342Y-102279D01*
X174342Y-113835D01*
G54D12*
X192851Y-38502D02*
X160530Y-38502D01*
X160530Y-74439D01*
X192851Y-74440D01*
X192851Y-38502D01*
G54D13*
X195789Y-30803D02*
X194189Y-32136D01*
X193655Y-33470D01*
X193655Y-36136D01*
G54D13*
X197922Y-36136D02*
X197922Y-25470D01*
X195255Y-25470D01*
X194189Y-26136D01*
X193655Y-27470D01*
X193655Y-28803D01*
X194189Y-30136D01*
X195255Y-30803D01*
X197922Y-30803D01*
G54D13*
X189922Y-36136D02*
X189922Y-25470D01*
X187255Y-25470D01*
X186189Y-26136D01*
X185655Y-27470D01*
X185655Y-28803D01*
X186189Y-30136D01*
X187255Y-30803D01*
X189922Y-30803D01*
G54D13*
X181922Y-29470D02*
X179255Y-25470D01*
X179255Y-36136D01*
G54D14*
X209638Y-237323D02*
X208971Y-235656D01*
X207638Y-234823D01*
X206304Y-234823D01*
X204971Y-235656D01*
X204304Y-237323D01*
X204304Y-238990D01*
X204971Y-240656D01*
X206304Y-241490D01*
X204971Y-242323D01*
X204304Y-243990D01*
X204304Y-245656D01*
X204971Y-247323D01*
X206304Y-248156D01*
X207638Y-248156D01*
X208971Y-247323D01*
X209638Y-245656D01*
G54D14*
X199638Y-234823D02*
X196304Y-248156D01*
X192971Y-234823D01*
G54D14*
X188304Y-237323D02*
X187637Y-235656D01*
X186304Y-234823D01*
X184970Y-234823D01*
X183637Y-235656D01*
X182970Y-237323D01*
X182970Y-238990D01*
X183637Y-240656D01*
X184970Y-241490D01*
X183637Y-242323D01*
X182970Y-243990D01*
X182970Y-245656D01*
X183637Y-247323D01*
X184970Y-248156D01*
X186304Y-248156D01*
X187637Y-247323D01*
X188304Y-245656D01*
G54D13*
X95942Y-229660D02*
X95409Y-230993D01*
X94342Y-231660D01*
X93276Y-231660D01*
X92209Y-230993D01*
X91676Y-229660D01*
X91676Y-228326D01*
X92209Y-226993D01*
X93276Y-226326D01*
X94342Y-226326D01*
X95409Y-225660D01*
X95942Y-224326D01*
X95942Y-222993D01*
X95409Y-221660D01*
X94342Y-220993D01*
X93276Y-220993D01*
X92209Y-221660D01*
X91676Y-222993D01*
G54D13*
X83676Y-222993D02*
X83676Y-229660D01*
X84209Y-230993D01*
X85276Y-231660D01*
X86342Y-231660D01*
X87409Y-230993D01*
X87942Y-229660D01*
X87942Y-222993D01*
X87409Y-221660D01*
X86342Y-220993D01*
X85276Y-220993D01*
X84209Y-221660D01*
X83676Y-222993D01*
G54D13*
X121148Y-229579D02*
X120615Y-230912D01*
X119548Y-231579D01*
X118481Y-231579D01*
X117415Y-230912D01*
X116881Y-229579D01*
X116881Y-228246D01*
X117415Y-226912D01*
X118481Y-226246D01*
X119548Y-226246D01*
X120615Y-225579D01*
X121148Y-224246D01*
X121148Y-222912D01*
X120615Y-221579D01*
X119548Y-220912D01*
X118481Y-220912D01*
X117415Y-221579D01*
X116881Y-222912D01*
G54D13*
X113148Y-224912D02*
X110481Y-220912D01*
X110481Y-231579D01*
G54D13*
X146348Y-229580D02*
X145815Y-230913D01*
X144748Y-231580D01*
X143682Y-231580D01*
X142615Y-230913D01*
X142082Y-229580D01*
X142082Y-228247D01*
X142615Y-226913D01*
X143682Y-226247D01*
X144748Y-226247D01*
X145815Y-225580D01*
X146348Y-224247D01*
X146348Y-222913D01*
X145815Y-221580D01*
X144748Y-220913D01*
X143682Y-220913D01*
X142615Y-221580D01*
X142082Y-222913D01*
G54D13*
X134082Y-231580D02*
X138348Y-231580D01*
X138348Y-230913D01*
X137815Y-229580D01*
X134615Y-225580D01*
X134082Y-224247D01*
X134082Y-222913D01*
X134615Y-221580D01*
X135682Y-220913D01*
X136748Y-220913D01*
X137815Y-221580D01*
X138348Y-222913D01*
G54D14*
X44646Y-241727D02*
X41979Y-241727D01*
X41979Y-245894D01*
X42646Y-247560D01*
X43979Y-248394D01*
X45313Y-248394D01*
X46646Y-247560D01*
X47313Y-245894D01*
X47313Y-237560D01*
X46646Y-235894D01*
X45313Y-235060D01*
X43979Y-235060D01*
X42646Y-235894D01*
X41979Y-237560D01*
G54D14*
X37313Y-248394D02*
X37313Y-235060D01*
X31979Y-248394D01*
X31979Y-235060D01*
G54D14*
X27313Y-248394D02*
X27313Y-235060D01*
X23979Y-235060D01*
X22646Y-235894D01*
X21979Y-237560D01*
X21979Y-245894D01*
X22646Y-247560D01*
X23979Y-248394D01*
X27313Y-248394D01*
G54D12*
X192383Y-147005D02*
X160062Y-147005D01*
X160062Y-182942D01*
X192383Y-182942D01*
X192383Y-147005D01*
G54D13*
X172679Y-135922D02*
X171079Y-137256D01*
X170545Y-138589D01*
X170545Y-141256D01*
G54D13*
X174812Y-141256D02*
X174812Y-130589D01*
X172145Y-130589D01*
X171079Y-131256D01*
X170545Y-132589D01*
X170545Y-133922D01*
X171079Y-135256D01*
X172145Y-135922D01*
X174812Y-135922D01*
G54D13*
X166812Y-141256D02*
X166812Y-130589D01*
X164145Y-130589D01*
X163079Y-131256D01*
X162545Y-132589D01*
X162545Y-133922D01*
X163079Y-135256D01*
X164145Y-135922D01*
X166812Y-135922D01*
G54D13*
X154545Y-141256D02*
X158812Y-141256D01*
X158812Y-140589D01*
X158279Y-139256D01*
X155079Y-135256D01*
X154545Y-133922D01*
X154545Y-132589D01*
X155079Y-131256D01*
X156145Y-130589D01*
X157212Y-130589D01*
X158279Y-131256D01*
X158812Y-132589D01*
G54D15*
X122734Y-144139D02*
X122734Y-128139D01*
X117134Y-128139D01*
G54D15*
X122734Y-136139D02*
X117134Y-136139D01*
G54D15*
X111534Y-128139D02*
X107534Y-144139D01*
X103534Y-128139D01*
G54D15*
X97934Y-137139D02*
X91534Y-137139D01*
G54D15*
X85934Y-134139D02*
X81934Y-128139D01*
X81934Y-144139D01*
G54D15*
X122734Y-169139D02*
X122734Y-153139D01*
X118734Y-153139D01*
X117134Y-154139D01*
X116334Y-156139D01*
X116334Y-158139D01*
X117134Y-160139D01*
X118734Y-161139D01*
X122734Y-161139D01*
G54D15*
X107534Y-161139D02*
X105134Y-163139D01*
X104334Y-165139D01*
X104334Y-169139D01*
G54D15*
X110734Y-169139D02*
X110734Y-153139D01*
X106734Y-153139D01*
X105134Y-154139D01*
X104334Y-156139D01*
X104334Y-158139D01*
X105134Y-160139D01*
X106734Y-161139D01*
X110734Y-161139D01*
G54D15*
X92334Y-156139D02*
X92334Y-166139D01*
X93134Y-168139D01*
X94734Y-169139D01*
X96334Y-169139D01*
X97934Y-168139D01*
X98734Y-166139D01*
X98734Y-156139D01*
X97934Y-154139D01*
X96334Y-153139D01*
X94734Y-153139D01*
X93134Y-154139D01*
X92334Y-156139D01*
G54D15*
X83534Y-161139D02*
X80334Y-161139D01*
X80334Y-166139D01*
X81134Y-168139D01*
X82734Y-169139D01*
X84334Y-169139D01*
X85934Y-168139D01*
X86734Y-166139D01*
X86734Y-156139D01*
X85934Y-154139D01*
X84334Y-153139D01*
X82734Y-153139D01*
X81134Y-154139D01*
X80334Y-156139D01*
G54D16*
X137734Y-186806D02*
X137112Y-188361D01*
X135867Y-189139D01*
X134623Y-189139D01*
X133378Y-188361D01*
X132756Y-186806D01*
X132756Y-185250D01*
X133378Y-183695D01*
X134623Y-182917D01*
X135867Y-182917D01*
X137112Y-182139D01*
X137734Y-180583D01*
X137734Y-179028D01*
X137112Y-177472D01*
X135867Y-176695D01*
X134623Y-176695D01*
X133378Y-177472D01*
X132756Y-179028D01*
G54D16*
X124044Y-189139D02*
X128400Y-189139D01*
X128400Y-176695D01*
X124044Y-176695D01*
G54D16*
X128400Y-182917D02*
X124044Y-182917D01*
G54D16*
X119688Y-176695D02*
X119688Y-189139D01*
X115332Y-189139D01*
G54D16*
X106620Y-189139D02*
X110976Y-189139D01*
X110976Y-176695D01*
X106620Y-176695D01*
G54D16*
X110976Y-182917D02*
X106620Y-182917D01*
G54D16*
X97286Y-186806D02*
X97908Y-188361D01*
X99153Y-189139D01*
X100397Y-189139D01*
X101642Y-188361D01*
X102264Y-186806D01*
X102264Y-179028D01*
X101642Y-177472D01*
X100397Y-176695D01*
X99153Y-176695D01*
X97908Y-177472D01*
X97286Y-179028D01*
G54D16*
X90441Y-189139D02*
X90441Y-176695D01*
G54D16*
X92930Y-176695D02*
X87952Y-176695D01*
G54D16*
X78618Y-179028D02*
X78618Y-186806D01*
X79240Y-188361D01*
X80485Y-189139D01*
X81729Y-189139D01*
X82974Y-188361D01*
X83596Y-186806D01*
X83596Y-179028D01*
X82974Y-177472D01*
X81729Y-176695D01*
X80485Y-176695D01*
X79240Y-177472D01*
X78618Y-179028D01*
G54D16*
X71773Y-182917D02*
X69906Y-184472D01*
X69284Y-186028D01*
X69284Y-189139D01*
G54D16*
X74262Y-189139D02*
X74262Y-176695D01*
X71151Y-176695D01*
X69906Y-177472D01*
X69284Y-179028D01*
X69284Y-180583D01*
X69906Y-182139D01*
X71151Y-182917D01*
X74262Y-182917D01*
M02*
