%FSLAX34Y34*%
%MOMM*%
%LNCOPPER_BOTTOM*%
G71*
G01*
%ADD10C, 2.150*%
%ADD11C, 3.400*%
%ADD12R, 1.160X1.900*%
%ADD13R, 1.700X1.800*%
%ADD14R, 1.300X0.800*%
%ADD15C, 1.100*%
%ADD16C, 0.660*%
%ADD17C, 0.700*%
%ADD18C, 0.900*%
%ADD19C, 2.400*%
%ADD20C, 0.600*%
%ADD21C, 0.150*%
%ADD22C, 0.800*%
%ADD23C, 0.200*%
%ADD24R, 1.300X1.300*%
%ADD25C, 1.000*%
%ADD26C, 0.500*%
%ADD27C, 0.464*%
%ADD28C, 0.451*%
%ADD29C, 0.252*%
%ADD30C, 0.248*%
%ADD31C, 0.233*%
%ADD32C, 0.667*%
%ADD33C, 0.300*%
%ADD34C, 1.750*%
%ADD35C, 3.000*%
%ADD36R, 0.760X1.500*%
%ADD37R, 1.300X1.400*%
%ADD38R, 0.900X0.400*%
%ADD39C, 0.700*%
%ADD40C, 0.260*%
%ADD41C, 2.000*%
%ADD42R, 0.900X0.900*%
%LPD*%
G36*
X244Y325D02*
X230244Y325D01*
X230244Y-299675D01*
X244Y-299675D01*
X244Y325D01*
G37*
%LPC*%
X164550Y-209600D02*
G54D10*
D03*
X139550Y-209600D02*
G54D10*
D03*
X114550Y-209600D02*
G54D10*
D03*
X89550Y-209600D02*
G54D10*
D03*
X64550Y-209600D02*
G54D10*
D03*
X64550Y-26600D02*
G54D10*
D03*
X89550Y-26600D02*
G54D10*
D03*
X114550Y-26600D02*
G54D10*
D03*
X139550Y-26600D02*
G54D10*
D03*
X164550Y-26600D02*
G54D10*
D03*
X27050Y-129600D02*
G54D11*
D03*
X202050Y-129600D02*
G54D11*
D03*
X140737Y-109588D02*
G54D12*
D03*
X128037Y-109588D02*
G54D12*
D03*
X115337Y-109588D02*
G54D12*
D03*
X102637Y-109588D02*
G54D12*
D03*
X140737Y-55588D02*
G54D12*
D03*
X128037Y-55588D02*
G54D12*
D03*
X115337Y-55588D02*
G54D12*
D03*
X102638Y-55588D02*
G54D12*
D03*
X89938Y-109588D02*
G54D12*
D03*
X77237Y-109588D02*
G54D12*
D03*
X64537Y-109588D02*
G54D12*
D03*
X89937Y-55588D02*
G54D12*
D03*
X77238Y-55588D02*
G54D12*
D03*
X64538Y-55588D02*
G54D12*
D03*
X51837Y-109588D02*
G54D12*
D03*
X51838Y-55588D02*
G54D12*
D03*
X185147Y-87085D02*
G54D13*
D03*
X166147Y-87085D02*
G54D13*
D03*
X185851Y-44503D02*
G54D14*
D03*
X168851Y-44502D02*
G54D14*
D03*
X185851Y-52502D02*
G54D14*
D03*
X168851Y-52502D02*
G54D14*
D03*
X185851Y-60502D02*
G54D14*
D03*
X168851Y-60502D02*
G54D14*
D03*
X185851Y-68502D02*
G54D14*
D03*
X168851Y-68502D02*
G54D14*
D03*
X153406Y-71488D02*
G54D15*
D03*
X150644Y-51438D02*
G54D15*
D03*
X154781Y-60325D02*
G54D15*
D03*
X140737Y-74956D02*
G54D15*
D03*
X165344Y-105062D02*
G54D15*
D03*
X154612Y-156816D02*
G54D15*
D03*
X148675Y-166738D02*
G54D15*
D03*
X154612Y-177088D02*
G54D15*
D03*
G54D16*
X168383Y-169005D02*
X162055Y-169005D01*
X159787Y-166738D01*
X148675Y-166738D01*
G54D17*
X168383Y-177005D02*
X154612Y-177088D01*
G54D17*
X89550Y-26600D02*
X84319Y-26600D01*
X64538Y-46381D01*
X64538Y-55588D01*
G54D17*
X77238Y-55588D02*
X77238Y-44794D01*
X82000Y-40031D01*
X94700Y-40031D01*
X107400Y-27331D01*
X113819Y-27331D01*
X114550Y-26600D01*
G54D16*
X89937Y-55588D02*
X89937Y-52335D01*
X103432Y-38841D01*
X127309Y-38841D01*
X139550Y-26600D01*
G54D17*
X168851Y-52502D02*
X151915Y-52502D01*
X149850Y-51438D01*
G54D17*
X154406Y-60375D02*
X168724Y-60375D01*
G54D17*
X153406Y-71488D02*
X159288Y-71488D01*
X162169Y-68606D01*
X168747Y-68606D01*
X168851Y-68502D01*
G54D18*
X140737Y-55588D02*
X140737Y-74956D01*
X151850Y-86069D01*
X165163Y-86069D01*
X166147Y-85085D01*
G54D18*
X140737Y-74956D02*
X105020Y-74956D01*
X89938Y-90038D01*
X89938Y-109588D01*
G54D16*
X102638Y-55588D02*
X102638Y-47969D01*
X106606Y-44000D01*
X168349Y-44000D01*
G54D17*
X128037Y-109588D02*
X128037Y-197987D01*
X139550Y-209600D01*
G54D17*
X115337Y-109588D02*
X115337Y-208813D01*
X114550Y-209600D01*
G54D17*
X102637Y-109588D02*
X102637Y-196512D01*
X89550Y-209600D01*
G54D17*
X164550Y-209600D02*
X140737Y-185788D01*
X140737Y-109588D01*
G54D18*
X165344Y-105062D02*
X165344Y-85888D01*
X166147Y-85085D01*
G54D17*
X140494Y-243681D02*
X119856Y-223044D01*
X57944Y-223044D01*
X50800Y-215900D01*
X50800Y-199231D01*
X60325Y-189706D01*
X71438Y-189706D01*
X76994Y-184150D01*
X76994Y-109538D01*
G54D17*
X114544Y-244819D02*
X114544Y-231325D01*
X111369Y-228150D01*
X53425Y-228150D01*
X44694Y-219419D01*
X44694Y-197988D01*
X64538Y-178144D01*
X64537Y-109588D01*
X39931Y-56406D02*
G54D15*
D03*
G54D17*
X39931Y-56406D02*
X51019Y-56406D01*
X51838Y-55588D01*
X166138Y-244025D02*
G54D19*
D03*
X140738Y-244025D02*
G54D19*
D03*
X115338Y-244025D02*
G54D19*
D03*
X89938Y-244025D02*
G54D19*
D03*
X64538Y-244025D02*
G54D19*
D03*
G54D18*
X89938Y-109588D02*
X89938Y-184212D01*
X64550Y-209600D01*
G54D20*
X143669Y-146050D02*
X140494Y-149225D01*
G54D20*
X143669Y-146050D02*
X140494Y-142875D01*
G36*
X89550Y-26600D02*
X84319Y-26600D01*
X64538Y-46381D01*
X52044Y-46381D01*
X50800Y-47625D01*
X50800Y-64294D01*
X140394Y-64294D01*
X151850Y-86069D01*
X163169Y-86069D01*
X173831Y-75406D01*
X173831Y-49482D01*
X168851Y-44502D01*
X132452Y-44502D01*
X114550Y-26600D01*
X89550Y-26600D01*
G37*
G54D21*
X89550Y-26600D02*
X84319Y-26600D01*
X64538Y-46381D01*
X52044Y-46381D01*
X50800Y-47625D01*
X50800Y-64294D01*
X140394Y-64294D01*
X151850Y-86069D01*
X163169Y-86069D01*
X173831Y-75406D01*
X173831Y-49482D01*
X168851Y-44502D01*
X132452Y-44502D01*
X114550Y-26600D01*
X89550Y-26600D01*
G36*
X56356Y-100806D02*
X141288Y-100806D01*
X141288Y-118269D01*
X56356Y-118269D01*
X56356Y-100806D01*
G37*
G54D21*
X56356Y-100806D02*
X141288Y-100806D01*
X141288Y-118269D01*
X56356Y-118269D01*
X56356Y-100806D01*
G36*
X114550Y-209600D02*
X114550Y-222500D01*
X115094Y-223044D01*
X57844Y-223044D01*
X51044Y-216244D01*
X51044Y-191638D01*
X64538Y-178144D01*
X64537Y-109588D01*
X115337Y-109588D01*
X115337Y-208813D01*
X114550Y-209600D01*
G37*
G54D21*
X114550Y-209600D02*
X114550Y-222500D01*
X115094Y-223044D01*
X57844Y-223044D01*
X51044Y-216244D01*
X51044Y-191638D01*
X64538Y-178144D01*
X64537Y-109588D01*
X115337Y-109588D01*
X115337Y-208813D01*
X114550Y-209600D01*
G36*
X168383Y-153005D02*
X168383Y-177908D01*
X169862Y-179388D01*
X162912Y-179388D01*
X148675Y-165150D01*
X140544Y-165150D01*
X140494Y-165100D01*
X140494Y-153511D01*
X141288Y-146050D01*
X158750Y-146050D01*
X168383Y-153005D01*
G37*
G54D21*
X168383Y-153005D02*
X168383Y-177908D01*
X169862Y-179388D01*
X162912Y-179388D01*
X148675Y-165150D01*
X140544Y-165150D01*
X140494Y-165100D01*
X140494Y-153511D01*
X141288Y-146050D01*
X158750Y-146050D01*
X168383Y-153005D01*
G54D22*
X7500Y-12500D02*
X222500Y-12500D01*
X222500Y-257500D01*
X7500Y-257500D01*
X7500Y-12500D01*
G36*
X89938Y-244025D02*
X170000Y-244025D01*
X170000Y-260000D01*
X91050Y-260000D01*
X79938Y-244025D01*
X89938Y-244025D01*
G37*
G54D23*
X89938Y-244025D02*
X170000Y-244025D01*
X170000Y-260000D01*
X91050Y-260000D01*
X79938Y-244025D01*
X89938Y-244025D01*
X185382Y-153006D02*
G54D14*
D03*
X168383Y-153005D02*
G54D14*
D03*
X185382Y-161005D02*
G54D14*
D03*
X168383Y-161005D02*
G54D14*
D03*
X185382Y-169005D02*
G54D14*
D03*
X168383Y-169005D02*
G54D14*
D03*
X185382Y-177005D02*
G54D14*
D03*
X168383Y-177005D02*
G54D14*
D03*
G36*
X110000Y-220000D02*
X110000Y-226781D01*
X114544Y-231325D01*
X114544Y-243231D01*
X115338Y-244025D01*
X140738Y-244025D01*
X140738Y-240850D01*
X121688Y-221800D01*
X110000Y-220000D01*
G37*
G54D23*
X110000Y-220000D02*
X110000Y-226781D01*
X114544Y-231325D01*
X114544Y-243231D01*
X115338Y-244025D01*
X140738Y-244025D01*
X140738Y-240850D01*
X121688Y-221800D01*
X110000Y-220000D01*
G36*
X65000Y-10000D02*
X65000Y-25000D01*
X75000Y-35000D01*
X120000Y-35000D01*
X130000Y-45000D01*
X160000Y-45000D01*
X165000Y-40000D01*
X165000Y-10000D01*
X65000Y-10000D01*
G37*
G54D23*
X65000Y-10000D02*
X65000Y-25000D01*
X75000Y-35000D01*
X120000Y-35000D01*
X130000Y-45000D01*
X160000Y-45000D01*
X165000Y-40000D01*
X165000Y-10000D01*
X65000Y-10000D01*
G54D16*
X141288Y-146050D02*
X158750Y-146050D01*
X165894Y-153194D01*
X168194Y-153194D01*
X168383Y-153005D01*
G54D16*
X154612Y-156816D02*
X154628Y-156816D01*
X158818Y-161005D01*
X168383Y-161005D01*
G54D16*
X140000Y-70000D02*
X135000Y-75000D01*
X36700Y-168050D02*
G54D24*
D03*
X36600Y-155850D02*
G54D24*
D03*
G54D25*
X36600Y-155850D02*
X36600Y-139150D01*
X27050Y-129600D01*
G54D25*
X36600Y-155850D02*
X36600Y-149100D01*
X27500Y-140000D01*
X206700Y-168050D02*
G54D24*
D03*
X206600Y-155850D02*
G54D24*
D03*
G54D25*
X206600Y-155850D02*
X206600Y-134150D01*
X202050Y-129600D01*
G54D16*
X164550Y-26600D02*
X164550Y-35962D01*
X168275Y-39688D01*
X168275Y-43926D01*
X168851Y-44502D01*
G36*
X1588Y-258762D02*
X228600Y-258762D01*
X228600Y-298450D01*
X1588Y-298450D01*
X1588Y-258762D01*
G37*
G54D26*
X1588Y-258762D02*
X228600Y-258762D01*
X228600Y-298450D01*
X1588Y-298450D01*
X1588Y-258762D01*
G36*
X228600Y-298450D02*
X223838Y-298450D01*
X223838Y0D01*
X228600Y0D01*
X228600Y-298450D01*
G37*
G54D26*
X228600Y-298450D02*
X223838Y-298450D01*
X223838Y0D01*
X228600Y0D01*
X228600Y-298450D01*
G36*
X228600Y0D02*
X0Y0D01*
X0Y-11112D01*
X228600Y-11112D01*
X228600Y0D01*
G37*
G54D26*
X228600Y0D02*
X0Y0D01*
X0Y-11112D01*
X228600Y-11112D01*
X228600Y0D01*
G36*
X4762Y0D02*
X0Y0D01*
X0Y-311150D01*
X4762Y-311150D01*
X4762Y0D01*
G37*
G54D26*
X4762Y0D02*
X0Y0D01*
X0Y-311150D01*
X4762Y-311150D01*
X4762Y0D01*
%LPD*%
G54D27*
G36*
X51837Y-111906D02*
X45537Y-111906D01*
X45537Y-107270D01*
X51837Y-107270D01*
X51837Y-111906D01*
G37*
G36*
X49519Y-109588D02*
X49519Y-99588D01*
X54155Y-99588D01*
X54155Y-109588D01*
X49519Y-109588D01*
G37*
G36*
X54155Y-109588D02*
X54155Y-119588D01*
X49519Y-119588D01*
X49519Y-109588D01*
X54155Y-109588D01*
G37*
G54D28*
G36*
X187400Y-87085D02*
X187401Y-96585D01*
X182894Y-96585D01*
X182894Y-87085D01*
X187400Y-87085D01*
G37*
G36*
X185147Y-89338D02*
X176147Y-89339D01*
X176147Y-84832D01*
X185147Y-84832D01*
X185147Y-89338D01*
G37*
G36*
X182894Y-87085D02*
X182893Y-77585D01*
X187400Y-77585D01*
X187400Y-87085D01*
X182894Y-87085D01*
G37*
G36*
X185147Y-84832D02*
X194147Y-84831D01*
X194147Y-89338D01*
X185147Y-89338D01*
X185147Y-84832D01*
G37*
G54D29*
G36*
X185851Y-43243D02*
X192851Y-43243D01*
X192851Y-45763D01*
X185851Y-45763D01*
X185851Y-43243D01*
G37*
G36*
X187111Y-44503D02*
X187111Y-49003D01*
X184591Y-49003D01*
X184591Y-44503D01*
X187111Y-44503D01*
G37*
G36*
X185851Y-45763D02*
X178851Y-45763D01*
X178851Y-43243D01*
X185851Y-43243D01*
X185851Y-45763D01*
G37*
G36*
X184591Y-44503D02*
X184591Y-40003D01*
X187111Y-40003D01*
X187111Y-44503D01*
X184591Y-44503D01*
G37*
G54D30*
G36*
X185851Y-51262D02*
X192851Y-51262D01*
X192851Y-53742D01*
X185851Y-53742D01*
X185851Y-51262D01*
G37*
G36*
X187091Y-52502D02*
X187091Y-57002D01*
X184611Y-57002D01*
X184611Y-52502D01*
X187091Y-52502D01*
G37*
G36*
X185851Y-53742D02*
X178851Y-53742D01*
X178851Y-51262D01*
X185851Y-51262D01*
X185851Y-53742D01*
G37*
G36*
X184611Y-52502D02*
X184611Y-48002D01*
X187091Y-48002D01*
X187091Y-52502D01*
X184611Y-52502D01*
G37*
G54D29*
G36*
X185851Y-59242D02*
X192851Y-59242D01*
X192851Y-61762D01*
X185851Y-61762D01*
X185851Y-59242D01*
G37*
G36*
X187111Y-60502D02*
X187111Y-65002D01*
X184591Y-65002D01*
X184591Y-60502D01*
X187111Y-60502D01*
G37*
G36*
X185851Y-61762D02*
X178851Y-61762D01*
X178851Y-59242D01*
X185851Y-59242D01*
X185851Y-61762D01*
G37*
G36*
X184591Y-60502D02*
X184591Y-56002D01*
X187111Y-56002D01*
X187111Y-60502D01*
X184591Y-60502D01*
G37*
G54D30*
G36*
X185851Y-67262D02*
X192851Y-67262D01*
X192851Y-69742D01*
X185851Y-69742D01*
X185851Y-67262D01*
G37*
G36*
X187091Y-68502D02*
X187091Y-73002D01*
X184611Y-73002D01*
X184611Y-68502D01*
X187091Y-68502D01*
G37*
G36*
X185851Y-69742D02*
X178851Y-69742D01*
X178851Y-67262D01*
X185851Y-67262D01*
X185851Y-69742D01*
G37*
G36*
X184611Y-68502D02*
X184611Y-64002D01*
X187091Y-64002D01*
X187091Y-68502D01*
X184611Y-68502D01*
G37*
G54D31*
G36*
X53667Y-92500D02*
X53667Y-96500D01*
X51333Y-96500D01*
X51333Y-92500D01*
X53667Y-92500D01*
G37*
G36*
X52500Y-93667D02*
X48500Y-93667D01*
X48500Y-91333D01*
X52500Y-91333D01*
X52500Y-93667D01*
G37*
G36*
X51333Y-92500D02*
X51333Y-88500D01*
X53667Y-88500D01*
X53667Y-92500D01*
X51333Y-92500D01*
G37*
G36*
X52500Y-91333D02*
X56500Y-91333D01*
X56500Y-93667D01*
X52500Y-93667D01*
X52500Y-91333D01*
G37*
G54D32*
G36*
X64538Y-240692D02*
X77038Y-240692D01*
X77038Y-247358D01*
X64538Y-247358D01*
X64538Y-240692D01*
G37*
G36*
X64538Y-247358D02*
X52038Y-247358D01*
X52038Y-240692D01*
X64538Y-240692D01*
X64538Y-247358D01*
G37*
G54D29*
G36*
X185383Y-151746D02*
X192383Y-151746D01*
X192382Y-154266D01*
X185382Y-154266D01*
X185383Y-151746D01*
G37*
G36*
X186642Y-153006D02*
X186642Y-157506D01*
X184122Y-157506D01*
X184122Y-153006D01*
X186642Y-153006D01*
G37*
G36*
X185382Y-154266D02*
X178382Y-154266D01*
X178383Y-151746D01*
X185383Y-151746D01*
X185382Y-154266D01*
G37*
G36*
X184122Y-153006D02*
X184123Y-148506D01*
X186643Y-148506D01*
X186642Y-153006D01*
X184122Y-153006D01*
G37*
G54D30*
G36*
X185382Y-159765D02*
X192382Y-159765D01*
X192382Y-162245D01*
X185382Y-162245D01*
X185382Y-159765D01*
G37*
G36*
X186622Y-161005D02*
X186622Y-165505D01*
X184142Y-165505D01*
X184142Y-161005D01*
X186622Y-161005D01*
G37*
G36*
X185382Y-162245D02*
X178382Y-162245D01*
X178382Y-159765D01*
X185382Y-159765D01*
X185382Y-162245D01*
G37*
G36*
X184142Y-161005D02*
X184142Y-156505D01*
X186622Y-156505D01*
X186622Y-161005D01*
X184142Y-161005D01*
G37*
G54D29*
G36*
X185383Y-167745D02*
X192383Y-167745D01*
X192382Y-170265D01*
X185382Y-170265D01*
X185383Y-167745D01*
G37*
G36*
X186642Y-169005D02*
X186642Y-173505D01*
X184122Y-173505D01*
X184122Y-169005D01*
X186642Y-169005D01*
G37*
G36*
X185382Y-170265D02*
X178382Y-170265D01*
X178383Y-167745D01*
X185383Y-167745D01*
X185382Y-170265D01*
G37*
G36*
X184122Y-169005D02*
X184123Y-164505D01*
X186643Y-164505D01*
X186642Y-169005D01*
X184122Y-169005D01*
G37*
G54D30*
G36*
X185382Y-175765D02*
X192382Y-175765D01*
X192382Y-178245D01*
X185382Y-178245D01*
X185382Y-175765D01*
G37*
G36*
X186622Y-177005D02*
X186622Y-181505D01*
X184142Y-181505D01*
X184142Y-177005D01*
X186622Y-177005D01*
G37*
G36*
X185382Y-178245D02*
X178382Y-178245D01*
X178382Y-175765D01*
X185382Y-175765D01*
X185382Y-178245D01*
G37*
G36*
X184142Y-177005D02*
X184142Y-172505D01*
X186622Y-172505D01*
X186622Y-177005D01*
X184142Y-177005D01*
G37*
G54D31*
G36*
X26167Y-100000D02*
X26167Y-104000D01*
X23833Y-104000D01*
X23833Y-100000D01*
X26167Y-100000D01*
G37*
G36*
X25000Y-101167D02*
X21000Y-101167D01*
X21000Y-98833D01*
X25000Y-98833D01*
X25000Y-101167D01*
G37*
G36*
X23833Y-100000D02*
X23833Y-96000D01*
X26167Y-96000D01*
X26167Y-100000D01*
X23833Y-100000D01*
G37*
G36*
X25000Y-98833D02*
X29000Y-98833D01*
X29000Y-101167D01*
X25000Y-101167D01*
X25000Y-98833D01*
G37*
G54D31*
G36*
X26167Y-80000D02*
X26167Y-84000D01*
X23833Y-84000D01*
X23833Y-80000D01*
X26167Y-80000D01*
G37*
G36*
X25000Y-81167D02*
X21000Y-81167D01*
X21000Y-78833D01*
X25000Y-78833D01*
X25000Y-81167D01*
G37*
G36*
X23833Y-80000D02*
X23833Y-76000D01*
X26167Y-76000D01*
X26167Y-80000D01*
X23833Y-80000D01*
G37*
G36*
X25000Y-78833D02*
X29000Y-78833D01*
X29000Y-81167D01*
X25000Y-81167D01*
X25000Y-78833D01*
G37*
G54D31*
G36*
X26167Y-60000D02*
X26167Y-64000D01*
X23833Y-64000D01*
X23833Y-60000D01*
X26167Y-60000D01*
G37*
G36*
X25000Y-61167D02*
X21000Y-61167D01*
X21000Y-58833D01*
X25000Y-58833D01*
X25000Y-61167D01*
G37*
G36*
X23833Y-60000D02*
X23833Y-56000D01*
X26167Y-56000D01*
X26167Y-60000D01*
X23833Y-60000D01*
G37*
G36*
X25000Y-58833D02*
X29000Y-58833D01*
X29000Y-61167D01*
X25000Y-61167D01*
X25000Y-58833D01*
G37*
G54D31*
G36*
X26167Y-40000D02*
X26167Y-44000D01*
X23833Y-44000D01*
X23833Y-40000D01*
X26167Y-40000D01*
G37*
G36*
X25000Y-41167D02*
X21000Y-41167D01*
X21000Y-38833D01*
X25000Y-38833D01*
X25000Y-41167D01*
G37*
G36*
X23833Y-40000D02*
X23833Y-36000D01*
X26167Y-36000D01*
X26167Y-40000D01*
X23833Y-40000D01*
G37*
G36*
X25000Y-38833D02*
X29000Y-38833D01*
X29000Y-41167D01*
X25000Y-41167D01*
X25000Y-38833D01*
G37*
G54D31*
G36*
X26167Y-160000D02*
X26167Y-164000D01*
X23833Y-164000D01*
X23833Y-160000D01*
X26167Y-160000D01*
G37*
G36*
X25000Y-161167D02*
X21000Y-161167D01*
X21000Y-158833D01*
X25000Y-158833D01*
X25000Y-161167D01*
G37*
G36*
X23833Y-160000D02*
X23833Y-156000D01*
X26167Y-156000D01*
X26167Y-160000D01*
X23833Y-160000D01*
G37*
G36*
X25000Y-158833D02*
X29000Y-158833D01*
X29000Y-161167D01*
X25000Y-161167D01*
X25000Y-158833D01*
G37*
G54D31*
G36*
X26167Y-180000D02*
X26167Y-184000D01*
X23833Y-184000D01*
X23833Y-180000D01*
X26167Y-180000D01*
G37*
G36*
X25000Y-181167D02*
X21000Y-181167D01*
X21000Y-178833D01*
X25000Y-178833D01*
X25000Y-181167D01*
G37*
G36*
X23833Y-180000D02*
X23833Y-176000D01*
X26167Y-176000D01*
X26167Y-180000D01*
X23833Y-180000D01*
G37*
G36*
X25000Y-178833D02*
X29000Y-178833D01*
X29000Y-181167D01*
X25000Y-181167D01*
X25000Y-178833D01*
G37*
G54D31*
G36*
X26167Y-200000D02*
X26167Y-204000D01*
X23833Y-204000D01*
X23833Y-200000D01*
X26167Y-200000D01*
G37*
G36*
X25000Y-201167D02*
X21000Y-201167D01*
X21000Y-198833D01*
X25000Y-198833D01*
X25000Y-201167D01*
G37*
G36*
X23833Y-200000D02*
X23833Y-196000D01*
X26167Y-196000D01*
X26167Y-200000D01*
X23833Y-200000D01*
G37*
G36*
X25000Y-198833D02*
X29000Y-198833D01*
X29000Y-201167D01*
X25000Y-201167D01*
X25000Y-198833D01*
G37*
G54D31*
G36*
X26167Y-220000D02*
X26167Y-224000D01*
X23833Y-224000D01*
X23833Y-220000D01*
X26167Y-220000D01*
G37*
G36*
X25000Y-221167D02*
X21000Y-221167D01*
X21000Y-218833D01*
X25000Y-218833D01*
X25000Y-221167D01*
G37*
G36*
X23833Y-220000D02*
X23833Y-216000D01*
X26167Y-216000D01*
X26167Y-220000D01*
X23833Y-220000D01*
G37*
G36*
X25000Y-218833D02*
X29000Y-218833D01*
X29000Y-221167D01*
X25000Y-221167D01*
X25000Y-218833D01*
G37*
G54D31*
G36*
X206167Y-220000D02*
X206167Y-224000D01*
X203833Y-224000D01*
X203833Y-220000D01*
X206167Y-220000D01*
G37*
G36*
X205000Y-221167D02*
X201000Y-221167D01*
X201000Y-218833D01*
X205000Y-218833D01*
X205000Y-221167D01*
G37*
G36*
X203833Y-220000D02*
X203833Y-216000D01*
X206167Y-216000D01*
X206167Y-220000D01*
X203833Y-220000D01*
G37*
G36*
X205000Y-218833D02*
X209000Y-218833D01*
X209000Y-221167D01*
X205000Y-221167D01*
X205000Y-218833D01*
G37*
G54D31*
G36*
X206167Y-40000D02*
X206167Y-44000D01*
X203833Y-44000D01*
X203833Y-40000D01*
X206167Y-40000D01*
G37*
G36*
X205000Y-41167D02*
X201000Y-41167D01*
X201000Y-38833D01*
X205000Y-38833D01*
X205000Y-41167D01*
G37*
G36*
X203833Y-40000D02*
X203833Y-36000D01*
X206167Y-36000D01*
X206167Y-40000D01*
X203833Y-40000D01*
G37*
G36*
X205000Y-38833D02*
X209000Y-38833D01*
X209000Y-41167D01*
X205000Y-41167D01*
X205000Y-38833D01*
G37*
G54D31*
G36*
X206167Y-60000D02*
X206167Y-64000D01*
X203833Y-64000D01*
X203833Y-60000D01*
X206167Y-60000D01*
G37*
G36*
X205000Y-61167D02*
X201000Y-61167D01*
X201000Y-58833D01*
X205000Y-58833D01*
X205000Y-61167D01*
G37*
G36*
X203833Y-60000D02*
X203833Y-56000D01*
X206167Y-56000D01*
X206167Y-60000D01*
X203833Y-60000D01*
G37*
G36*
X205000Y-58833D02*
X209000Y-58833D01*
X209000Y-61167D01*
X205000Y-61167D01*
X205000Y-58833D01*
G37*
G54D31*
G36*
X206167Y-80000D02*
X206167Y-84000D01*
X203833Y-84000D01*
X203833Y-80000D01*
X206167Y-80000D01*
G37*
G36*
X205000Y-81167D02*
X201000Y-81167D01*
X201000Y-78833D01*
X205000Y-78833D01*
X205000Y-81167D01*
G37*
G36*
X203833Y-80000D02*
X203833Y-76000D01*
X206167Y-76000D01*
X206167Y-80000D01*
X203833Y-80000D01*
G37*
G36*
X205000Y-78833D02*
X209000Y-78833D01*
X209000Y-81167D01*
X205000Y-81167D01*
X205000Y-78833D01*
G37*
G54D31*
G36*
X206167Y-100000D02*
X206167Y-104000D01*
X203833Y-104000D01*
X203833Y-100000D01*
X206167Y-100000D01*
G37*
G36*
X205000Y-101167D02*
X201000Y-101167D01*
X201000Y-98833D01*
X205000Y-98833D01*
X205000Y-101167D01*
G37*
G36*
X203833Y-100000D02*
X203833Y-96000D01*
X206167Y-96000D01*
X206167Y-100000D01*
X203833Y-100000D01*
G37*
G36*
X205000Y-98833D02*
X209000Y-98833D01*
X209000Y-101167D01*
X205000Y-101167D01*
X205000Y-98833D01*
G37*
G54D31*
G36*
X51167Y-160000D02*
X51167Y-164000D01*
X48833Y-164000D01*
X48833Y-160000D01*
X51167Y-160000D01*
G37*
G36*
X50000Y-161167D02*
X46000Y-161167D01*
X46000Y-158833D01*
X50000Y-158833D01*
X50000Y-161167D01*
G37*
G36*
X48833Y-160000D02*
X48833Y-156000D01*
X51167Y-156000D01*
X51167Y-160000D01*
X48833Y-160000D01*
G37*
G36*
X50000Y-158833D02*
X54000Y-158833D01*
X54000Y-161167D01*
X50000Y-161167D01*
X50000Y-158833D01*
G37*
G54D31*
G36*
X51167Y-180000D02*
X51167Y-184000D01*
X48833Y-184000D01*
X48833Y-180000D01*
X51167Y-180000D01*
G37*
G36*
X50000Y-181167D02*
X46000Y-181167D01*
X46000Y-178833D01*
X50000Y-178833D01*
X50000Y-181167D01*
G37*
G36*
X48833Y-180000D02*
X48833Y-176000D01*
X51167Y-176000D01*
X51167Y-180000D01*
X48833Y-180000D01*
G37*
G36*
X50000Y-178833D02*
X54000Y-178833D01*
X54000Y-181167D01*
X50000Y-181167D01*
X50000Y-178833D01*
G37*
G54D31*
G36*
X191167Y-205000D02*
X191167Y-209000D01*
X188833Y-209000D01*
X188833Y-205000D01*
X191167Y-205000D01*
G37*
G36*
X190000Y-206167D02*
X186000Y-206167D01*
X186000Y-203833D01*
X190000Y-203833D01*
X190000Y-206167D01*
G37*
G36*
X188833Y-205000D02*
X188833Y-201000D01*
X191167Y-201000D01*
X191167Y-205000D01*
X188833Y-205000D01*
G37*
G36*
X190000Y-203833D02*
X194000Y-203833D01*
X194000Y-206167D01*
X190000Y-206167D01*
X190000Y-203833D01*
G37*
G54D31*
G36*
X111167Y-90000D02*
X111167Y-94000D01*
X108833Y-94000D01*
X108833Y-90000D01*
X111167Y-90000D01*
G37*
G36*
X110000Y-91167D02*
X106000Y-91167D01*
X106000Y-88833D01*
X110000Y-88833D01*
X110000Y-91167D01*
G37*
G36*
X108833Y-90000D02*
X108833Y-86000D01*
X111167Y-86000D01*
X111167Y-90000D01*
X108833Y-90000D01*
G37*
G36*
X110000Y-88833D02*
X114000Y-88833D01*
X114000Y-91167D01*
X110000Y-91167D01*
X110000Y-88833D01*
G37*
G54D31*
G36*
X126167Y-90000D02*
X126167Y-94000D01*
X123833Y-94000D01*
X123833Y-90000D01*
X126167Y-90000D01*
G37*
G36*
X125000Y-91167D02*
X121000Y-91167D01*
X121000Y-88833D01*
X125000Y-88833D01*
X125000Y-91167D01*
G37*
G36*
X123833Y-90000D02*
X123833Y-86000D01*
X126167Y-86000D01*
X126167Y-90000D01*
X123833Y-90000D01*
G37*
G36*
X125000Y-88833D02*
X129000Y-88833D01*
X129000Y-91167D01*
X125000Y-91167D01*
X125000Y-88833D01*
G37*
G54D31*
G36*
X196167Y-230000D02*
X196167Y-234000D01*
X193833Y-234000D01*
X193833Y-230000D01*
X196167Y-230000D01*
G37*
G36*
X195000Y-231167D02*
X191000Y-231167D01*
X191000Y-228833D01*
X195000Y-228833D01*
X195000Y-231167D01*
G37*
G36*
X193833Y-230000D02*
X193833Y-226000D01*
X196167Y-226000D01*
X196167Y-230000D01*
X193833Y-230000D01*
G37*
G36*
X195000Y-228833D02*
X199000Y-228833D01*
X199000Y-231167D01*
X195000Y-231167D01*
X195000Y-228833D01*
G37*
G54D31*
G36*
X161167Y-190000D02*
X161167Y-194000D01*
X158833Y-194000D01*
X158833Y-190000D01*
X161167Y-190000D01*
G37*
G36*
X160000Y-191167D02*
X156000Y-191167D01*
X156000Y-188833D01*
X160000Y-188833D01*
X160000Y-191167D01*
G37*
G36*
X158833Y-190000D02*
X158833Y-186000D01*
X161167Y-186000D01*
X161167Y-190000D01*
X158833Y-190000D01*
G37*
G36*
X160000Y-188833D02*
X164000Y-188833D01*
X164000Y-191167D01*
X160000Y-191167D01*
X160000Y-188833D01*
G37*
G54D31*
G36*
X178667Y-197500D02*
X178667Y-201500D01*
X176333Y-201500D01*
X176333Y-197500D01*
X178667Y-197500D01*
G37*
G36*
X177500Y-198667D02*
X173500Y-198667D01*
X173500Y-196333D01*
X177500Y-196333D01*
X177500Y-198667D01*
G37*
G36*
X176333Y-197500D02*
X176333Y-193500D01*
X178667Y-193500D01*
X178667Y-197500D01*
X176333Y-197500D01*
G37*
G36*
X177500Y-196333D02*
X181500Y-196333D01*
X181500Y-198667D01*
X177500Y-198667D01*
X177500Y-196333D01*
G37*
G54D31*
G36*
X53667Y-72500D02*
X53667Y-76500D01*
X51333Y-76500D01*
X51333Y-72500D01*
X53667Y-72500D01*
G37*
G36*
X52500Y-73667D02*
X48500Y-73667D01*
X48500Y-71333D01*
X52500Y-71333D01*
X52500Y-73667D01*
G37*
G36*
X51333Y-72500D02*
X51333Y-68500D01*
X53667Y-68500D01*
X53667Y-72500D01*
X51333Y-72500D01*
G37*
G36*
X52500Y-71333D02*
X56500Y-71333D01*
X56500Y-73667D01*
X52500Y-73667D01*
X52500Y-71333D01*
G37*
G54D31*
G36*
X73667Y-72500D02*
X73667Y-76500D01*
X71333Y-76500D01*
X71333Y-72500D01*
X73667Y-72500D01*
G37*
G36*
X72500Y-73667D02*
X68500Y-73667D01*
X68500Y-71333D01*
X72500Y-71333D01*
X72500Y-73667D01*
G37*
G36*
X71333Y-72500D02*
X71333Y-68500D01*
X73667Y-68500D01*
X73667Y-72500D01*
X71333Y-72500D01*
G37*
G36*
X72500Y-71333D02*
X76500Y-71333D01*
X76500Y-73667D01*
X72500Y-73667D01*
X72500Y-71333D01*
G37*
G54D31*
G36*
X91167Y-72500D02*
X91167Y-76500D01*
X88833Y-76500D01*
X88833Y-72500D01*
X91167Y-72500D01*
G37*
G36*
X90000Y-73667D02*
X86000Y-73667D01*
X86000Y-71333D01*
X90000Y-71333D01*
X90000Y-73667D01*
G37*
G36*
X88833Y-72500D02*
X88833Y-68500D01*
X91167Y-68500D01*
X91167Y-72500D01*
X88833Y-72500D01*
G37*
G36*
X90000Y-71333D02*
X94000Y-71333D01*
X94000Y-73667D01*
X90000Y-73667D01*
X90000Y-71333D01*
G37*
G54D33*
G36*
X36700Y-169550D02*
X29700Y-169550D01*
X29700Y-166550D01*
X36700Y-166550D01*
X36700Y-169550D01*
G37*
G36*
X36700Y-166550D02*
X43700Y-166550D01*
X43700Y-169550D01*
X36700Y-169550D01*
X36700Y-166550D01*
G37*
G36*
X38200Y-168050D02*
X38200Y-175050D01*
X35200Y-175050D01*
X35200Y-168050D01*
X38200Y-168050D01*
G37*
G54D33*
G36*
X206700Y-169550D02*
X199700Y-169550D01*
X199700Y-166550D01*
X206700Y-166550D01*
X206700Y-169550D01*
G37*
G36*
X206700Y-166550D02*
X213700Y-166550D01*
X213700Y-169550D01*
X206700Y-169550D01*
X206700Y-166550D01*
G37*
G36*
X208200Y-168050D02*
X208200Y-175050D01*
X205200Y-175050D01*
X205200Y-168050D01*
X208200Y-168050D01*
G37*
X164550Y-209600D02*
G54D34*
D03*
X139550Y-209600D02*
G54D34*
D03*
X114550Y-209600D02*
G54D34*
D03*
X89550Y-209600D02*
G54D34*
D03*
X64550Y-209600D02*
G54D34*
D03*
X64550Y-26600D02*
G54D34*
D03*
X89550Y-26600D02*
G54D34*
D03*
X114550Y-26600D02*
G54D34*
D03*
X139550Y-26600D02*
G54D34*
D03*
X164550Y-26600D02*
G54D34*
D03*
X27050Y-129600D02*
G54D35*
D03*
X202050Y-129600D02*
G54D35*
D03*
X140737Y-109588D02*
G54D36*
D03*
X128037Y-109588D02*
G54D36*
D03*
X115337Y-109588D02*
G54D36*
D03*
X102637Y-109588D02*
G54D36*
D03*
X140737Y-55588D02*
G54D36*
D03*
X128037Y-55588D02*
G54D36*
D03*
X115337Y-55588D02*
G54D36*
D03*
X102638Y-55588D02*
G54D36*
D03*
X89938Y-109588D02*
G54D36*
D03*
X77237Y-109588D02*
G54D36*
D03*
X64537Y-109588D02*
G54D36*
D03*
X89937Y-55588D02*
G54D36*
D03*
X77238Y-55588D02*
G54D36*
D03*
X64538Y-55588D02*
G54D36*
D03*
X51837Y-109588D02*
G54D36*
D03*
X51838Y-55588D02*
G54D36*
D03*
X185147Y-87085D02*
G54D37*
D03*
X166147Y-87085D02*
G54D37*
D03*
X185851Y-44503D02*
G54D38*
D03*
X168851Y-44502D02*
G54D38*
D03*
X185851Y-52502D02*
G54D38*
D03*
X168851Y-52502D02*
G54D38*
D03*
X185851Y-60502D02*
G54D38*
D03*
X168851Y-60502D02*
G54D38*
D03*
X185851Y-68502D02*
G54D38*
D03*
X168851Y-68502D02*
G54D38*
D03*
X153406Y-71488D02*
G54D39*
D03*
X150644Y-51438D02*
G54D39*
D03*
X154781Y-60325D02*
G54D39*
D03*
X140737Y-74956D02*
G54D39*
D03*
X165344Y-105062D02*
G54D39*
D03*
X154612Y-156816D02*
G54D39*
D03*
X148675Y-166738D02*
G54D39*
D03*
X154612Y-177088D02*
G54D39*
D03*
G54D40*
X168383Y-169005D02*
X162055Y-169005D01*
X159787Y-166738D01*
X148675Y-166738D01*
G54D33*
X168383Y-177005D02*
X154612Y-177088D01*
G54D33*
X89550Y-26600D02*
X84319Y-26600D01*
X64538Y-46381D01*
X64538Y-55588D01*
G54D33*
X77238Y-55588D02*
X77238Y-44794D01*
X82000Y-40031D01*
X94700Y-40031D01*
X107400Y-27331D01*
X113819Y-27331D01*
X114550Y-26600D01*
G54D40*
X89937Y-55588D02*
X89937Y-52335D01*
X103432Y-38841D01*
X127309Y-38841D01*
X139550Y-26600D01*
X52500Y-92500D02*
G54D39*
D03*
G54D33*
X168851Y-52502D02*
X151915Y-52502D01*
X149850Y-51438D01*
G54D33*
X154406Y-60375D02*
X168724Y-60375D01*
G54D33*
X153406Y-71488D02*
X159288Y-71488D01*
X162169Y-68606D01*
X168747Y-68606D01*
X168851Y-68502D01*
G54D26*
X140737Y-55588D02*
X140737Y-74956D01*
X151850Y-86069D01*
X165163Y-86069D01*
X166147Y-85085D01*
G54D26*
X140737Y-74956D02*
X105020Y-74956D01*
X89938Y-90038D01*
X89938Y-109588D01*
G54D40*
X102638Y-55588D02*
X102638Y-47969D01*
X106606Y-44000D01*
X168349Y-44000D01*
G54D33*
X128037Y-109588D02*
X128037Y-197987D01*
X139550Y-209600D01*
G54D33*
X115337Y-109588D02*
X115337Y-208813D01*
X114550Y-209600D01*
G54D33*
X102637Y-109588D02*
X102637Y-196512D01*
X89550Y-209600D01*
G54D33*
X164550Y-209600D02*
X140737Y-185788D01*
X140737Y-109588D01*
G54D26*
X165344Y-105062D02*
X165344Y-85888D01*
X166147Y-85085D01*
G54D33*
X140494Y-243681D02*
X119856Y-223044D01*
X57944Y-223044D01*
X50800Y-215900D01*
X50800Y-199231D01*
X60325Y-189706D01*
X71438Y-189706D01*
X76994Y-184150D01*
X76994Y-109538D01*
G54D33*
X114544Y-244819D02*
X114544Y-231325D01*
X111369Y-228150D01*
X53425Y-228150D01*
X44694Y-219419D01*
X44694Y-197988D01*
X64538Y-178144D01*
X64537Y-109588D01*
X39931Y-56406D02*
G54D39*
D03*
G54D33*
X39931Y-56406D02*
X51019Y-56406D01*
X51838Y-55588D01*
X166138Y-244025D02*
G54D41*
D03*
X140738Y-244025D02*
G54D41*
D03*
X115338Y-244025D02*
G54D41*
D03*
X89938Y-244025D02*
G54D41*
D03*
X64538Y-244025D02*
G54D41*
D03*
G54D26*
X89938Y-109588D02*
X89938Y-184212D01*
X64550Y-209600D01*
G54D23*
X143669Y-146050D02*
X140494Y-149225D01*
G54D23*
X143669Y-146050D02*
X140494Y-142875D01*
X185382Y-153006D02*
G54D38*
D03*
X168383Y-153005D02*
G54D38*
D03*
X185382Y-161005D02*
G54D38*
D03*
X168383Y-161005D02*
G54D38*
D03*
X185382Y-169005D02*
G54D38*
D03*
X168383Y-169005D02*
G54D38*
D03*
X185382Y-177005D02*
G54D38*
D03*
X168383Y-177005D02*
G54D38*
D03*
X25000Y-100000D02*
G54D39*
D03*
X25000Y-80000D02*
G54D39*
D03*
X25000Y-60000D02*
G54D39*
D03*
X25000Y-40000D02*
G54D39*
D03*
X25000Y-160000D02*
G54D39*
D03*
X25000Y-180000D02*
G54D39*
D03*
X25000Y-200000D02*
G54D39*
D03*
X25000Y-220000D02*
G54D39*
D03*
X205000Y-220000D02*
G54D39*
D03*
X205000Y-40000D02*
G54D39*
D03*
X205000Y-60000D02*
G54D39*
D03*
X205000Y-80000D02*
G54D39*
D03*
X205000Y-100000D02*
G54D39*
D03*
X50000Y-160000D02*
G54D39*
D03*
X50000Y-180000D02*
G54D39*
D03*
X190000Y-205000D02*
G54D39*
D03*
X110000Y-90000D02*
G54D39*
D03*
X125000Y-90000D02*
G54D39*
D03*
G54D40*
X141288Y-146050D02*
X158750Y-146050D01*
X165894Y-153194D01*
X168194Y-153194D01*
X168383Y-153005D01*
G54D40*
X154612Y-156816D02*
X154628Y-156816D01*
X158818Y-161005D01*
X168383Y-161005D01*
X195000Y-230000D02*
G54D39*
D03*
X160000Y-190000D02*
G54D39*
D03*
X177500Y-197500D02*
G54D39*
D03*
X52500Y-72500D02*
G54D39*
D03*
X72500Y-72500D02*
G54D39*
D03*
X90000Y-72500D02*
G54D39*
D03*
G54D40*
X140000Y-70000D02*
X135000Y-75000D01*
X36700Y-168050D02*
G54D42*
D03*
X36600Y-155850D02*
G54D42*
D03*
G54D20*
X36600Y-155850D02*
X36600Y-139150D01*
X27050Y-129600D01*
G54D20*
X36600Y-155850D02*
X36600Y-149100D01*
X27500Y-140000D01*
X206700Y-168050D02*
G54D42*
D03*
X206600Y-155850D02*
G54D42*
D03*
G54D20*
X206600Y-155850D02*
X206600Y-134150D01*
X202050Y-129600D01*
G54D40*
X164550Y-26600D02*
X164550Y-35962D01*
X168275Y-39688D01*
X168275Y-43926D01*
X168851Y-44502D01*
M02*
