; Drill file
; Format: 3.3 (000.000)
M48
METRIC
T01C0.3
T02C0.9
T03C1.0
T04C2.0
%
G05
G90
T01
X002.500Y-022.000
X002.500Y-020.000
X002.500Y-018.000
X002.500Y-016.000
X005.000Y-016.000
X005.000Y-018.000
X002.500Y-010.000
X002.500Y-008.000
X002.500Y-006.000
X003.990Y-005.640
X005.250Y-007.250
X005.250Y-009.250
X007.250Y-007.250
X009.000Y-007.250
X011.000Y-009.000
X012.500Y-009.000
X014.070Y-007.500
X015.340Y-007.150
X015.480Y-006.030
X015.060Y-005.140
X020.500Y-006.000
X020.500Y-004.000
X020.500Y-008.000
X020.500Y-010.000
X016.530Y-010.510
X015.460Y-015.680
X014.870Y-016.670
X015.460Y-017.710
X016.000Y-019.000
X017.750Y-019.750
X019.000Y-020.500
X020.500Y-022.000
X019.500Y-023.000
X002.500Y-004.000
T02
X006.460Y-020.960
X008.960Y-020.960
X011.460Y-020.960
X013.960Y-020.960
X016.460Y-020.960
X016.460Y-002.660
X013.960Y-002.660
X011.460Y-002.660
X008.960Y-002.660
X006.460Y-002.660
T03
X006.450Y-024.400
X008.990Y-024.400
X011.530Y-024.400
X014.070Y-024.400
X016.610Y-024.400
T04
X002.700Y-012.960
X020.200Y-012.960
M30
